Coordinates
version=1
nRows=32
nColumns=12
inDegrees=yes

Units are S.I. units (second, meters, Newtons, ...)
Angles are in degrees

endheader
time	SC_y	SC_z	SC_x	AC_y	AC_z	AC_x	GH_y	GH_z	GH_yy	EL_x	PS_y
       0.0               -14.9          25.92           52.7          36.65          -5.25          17.71         -41.29          44.05          167.3          22.56           86.4
   0.02675              -14.91          25.91           52.7          36.65         -5.249           17.7          -41.3          44.05          167.3          22.56          86.39
   0.05349              -14.91          25.91           52.7          36.64         -5.248           17.7         -41.31          44.05          167.3          22.56          86.38
   0.08024              -14.92           25.9           52.7          36.64         -5.247          17.69         -41.33          44.05          167.2          22.57          86.37
     0.107              -14.92           25.9           52.7          36.64         -5.245          17.69         -41.34          44.05          167.2          22.57          86.36
    0.1337              -14.93          25.89           52.7          36.64         -5.244          17.68         -41.36          44.05          167.2          22.57          86.35
    0.1605              -14.93          25.88           52.7          36.64         -5.242          17.67         -41.38          44.05          167.2          22.57          86.34
    0.1872              -14.94          25.88           52.7          36.64          -5.24          17.67          -41.4          44.06          167.2          22.57          86.33
     0.214              -14.94          25.87           52.7          36.64         -5.238          17.66         -41.42          44.06          167.2          22.57          86.31
    0.2407              -14.95          25.86           52.7          36.64         -5.236          17.65         -41.44          44.06          167.2          22.57           86.3
    0.2675              -14.96          25.86           52.7          36.64         -5.234          17.64         -41.46          44.06          167.2          22.57          86.28
    0.2942              -14.97          25.85           52.7          36.63         -5.232          17.63         -41.49          44.06          167.1          22.58          86.26
     0.321              -14.97          25.84           52.7          36.63         -5.229          17.62         -41.52          44.07          167.1          22.58          86.25
    0.3477              -14.98          25.83           52.7          36.63         -5.227          17.61         -41.55          44.07          167.1          22.58          86.23
    0.3745              -14.99          25.82           52.7          36.63         -5.224           17.6         -41.58          44.07          167.1          22.58           86.2
    0.4012               -15.0           25.8           52.7          36.63         -5.221          17.58         -41.61          44.07          167.1          22.58          86.18
     0.428              -15.01          25.79           52.7          36.63         -5.217          17.57         -41.65          44.08          167.0          22.59          86.15
    0.4547              -15.03          25.78          52.71          36.62         -5.213          17.55         -41.69          44.08          167.0          22.59          86.13
    0.4815              -15.04          25.76          52.71          36.62         -5.209          17.53         -41.73          44.08          167.0          22.59           86.1
    0.5082              -15.06          25.75          52.71          36.62         -5.205          17.51         -41.78          44.09          166.9          22.59          86.06
    0.5349              -15.07          25.73          52.71          36.62           -5.2          17.49         -41.84          44.09          166.9           22.6          86.03
    0.5617              -15.09          25.71          52.71          36.61         -5.194          17.47          -41.9           44.1          166.9           22.6          85.98
    0.5884              -15.11          25.68          52.71          36.61         -5.188          17.44         -41.96           44.1          166.8           22.6          85.94
    0.6152              -15.13          25.66          52.71           36.6         -5.182          17.41         -42.03          44.11          166.8          22.61          85.89
    0.6419              -15.16          25.63          52.72           36.6         -5.174          17.38         -42.11          44.11          166.7          22.61          85.84
    0.6687              -15.18           25.6          52.72          36.59         -5.166          17.35          -42.2          44.12          166.7          22.62          85.77
    0.6954              -15.21          25.57          52.72          36.59         -5.157          17.31          -42.3          44.13          166.6          22.63           85.7
    0.7222              -15.25          25.53          52.72          36.58         -5.147          17.26         -42.41          44.14          166.5          22.63          85.63
    0.7489              -15.29          25.48          52.73          36.58         -5.135          17.21         -42.54          44.15          166.4          22.64          85.54
    0.7757              -15.33          25.43          52.73          36.57         -5.122          17.16         -42.69          44.16          166.3          22.65          85.44
    0.8024              -15.38          25.38          52.73          36.56         -5.106          17.09         -42.85          44.17          166.2          22.66          85.33
    0.8292              -15.44          25.31          52.74          36.55         -5.089          17.02         -43.04          44.19          166.1          22.67           85.2
